<svg width="97" height="82" viewBox="0 0 97 82" fill="none" xmlns="http://www.w3.org/2000/svg">
<mask id="mask0_83_24" style="mask-type:alpha" maskUnits="userSpaceOnUse" x="8" y="0" width="81" height="82">
<circle cx="48.5" cy="40.9729" r="40.3223" fill="#F3F0EA"/>
</mask>
<g mask="url(#mask0_83_24)">
<circle cx="48.5" cy="40.9729" r="40.3223" fill="#F3F0EA"/>
</g>
<path d="M55.0007 53.2502H41.0007V42.7502C41.0007 41.822 41.3695 40.9317 42.0259 40.2754C42.6822 39.619 43.5725 39.2502 44.5007 39.2502H51.5007V32.2502H41.0007V28.7502H51.5007C52.429 28.7502 53.3192 29.119 53.9756 29.7754C54.632 30.4317 55.0007 31.322 55.0007 32.2502V39.2502C55.0007 40.1785 54.632 41.0687 53.9756 41.7251C53.3192 42.3815 52.429 42.7502 51.5007 42.7502H44.5007V49.7502H55.0007V53.2502Z" fill="#71A894"/>
</svg>
