<svg width="44" height="44" viewBox="0 0 44 44" fill="none" xmlns="http://www.w3.org/2000/svg">
<g clip-path="url(#clip0_414_1231)">
<path d="M21.6262 4.10448C31.3037 4.10448 39.1484 11.9492 39.1484 21.6267C39.1484 31.3042 31.3037 39.1489 21.6262 39.1489C11.9487 39.1489 4.10399 31.3042 4.10399 21.6267C4.10399 11.9492 11.9487 4.10448 21.6262 4.10448Z" fill="white" stroke="#2AA65F"/>
<path d="M15.3184 22.2267L24.1114 28.0875C24.2199 28.1599 24.346 28.2015 24.4762 28.2079C24.6064 28.2143 24.736 28.1852 24.851 28.1238C24.966 28.0624 25.0622 27.971 25.1294 27.8592C25.1966 27.7475 25.2322 27.6196 25.2324 27.4892L25.2324 15.7639C25.232 15.6338 25.1963 15.5063 25.1292 15.3948C25.0622 15.2833 24.9662 15.1921 24.8514 15.1307C24.7367 15.0694 24.6075 15.0402 24.4775 15.0464C24.3476 15.0525 24.2217 15.0937 24.1132 15.1656L15.3184 21.0264C15.2195 21.0922 15.1384 21.1814 15.0823 21.2861C15.0263 21.3908 14.9969 21.5078 14.9969 21.6266C14.9969 21.7453 15.0263 21.8623 15.0823 21.967C15.1384 22.0717 15.2195 22.1609 15.3184 22.2267Z" fill="#2AA65F"/>
</g>
<defs>
<clipPath id="clip0_414_1231">
<rect width="43.2533" height="43.2533" fill="white" transform="translate(43.2529 43.2532) rotate(180)"/>
</clipPath>
</defs>
</svg>
