<?xml version="1.0" encoding="UTF-8"?>
<svg width="275px" height="40px" viewBox="0 0 275 40" version="1.1" xmlns="http://www.w3.org/2000/svg" xmlns:xlink="http://www.w3.org/1999/xlink">
    <title>Group 4</title>
    <defs>
        <linearGradient x1="127.557207%" y1="81.6455611%" x2="50%" y2="56.9986318%" id="linearGradient-1">
            <stop stop-color="#73D1F6" offset="0%"></stop>
            <stop stop-color="#7BCF68" offset="100%"></stop>
        </linearGradient>
        <linearGradient x1="87.2941299%" y1="108.82962%" x2="42.767291%" y2="42.7308017%" id="linearGradient-2">
            <stop stop-color="#23481C" offset="0%"></stop>
            <stop stop-color="#7BCF68" offset="100%"></stop>
        </linearGradient>
    </defs>
    <g id="Page-1" stroke="none" stroke-width="1" fill="none" fill-rule="evenodd">
        <g id="Group-4" transform="translate(-0.000000, 0.000000)" fill-rule="nonzero">
            <g id="Manglish-Icon-2019" transform="translate(0.000000, 0.000000)">
                <path d="M14.121223,-1.47734845e-15 L27.631158,-3.36319828e-16 C32.5414148,1.95411506e-16 34.3219926,0.511259691 36.1171091,1.47129851 C37.9122257,2.43133733 39.3210436,3.84015529 40.2810824,5.63527181 C41.2411213,7.43038833 41.752381,9.21096613 41.752381,14.121223 L41.752381,25.878777 C41.752381,30.7890339 41.2411213,32.5696117 40.2810824,34.3647282 C39.3210436,36.1598447 37.9122257,37.5686627 36.1171091,38.5287015 C34.3219926,39.4887403 32.5414148,40 27.631158,40 L14.121223,40 C9.21096613,40 7.43038833,39.4887403 5.63527181,38.5287015 C3.84015529,37.5686627 2.43133733,36.1598447 1.47129851,34.3647282 C0.511259691,32.5696117 -3.05906587e-16,30.7890339 5.26491265e-16,25.878777 L1.28717701e-15,14.121223 C-7.47886913e-16,9.21096613 0.511259691,7.43038833 1.47129851,5.63527181 C2.43133733,3.84015529 3.84015529,2.43133733 5.63527181,1.47129851 C7.43038833,0.511259691 9.21096613,8.58381994e-16 14.121223,-1.47734845e-15 Z" id="Rectangle-Copy" fill="#212121"></path>
                <path d="M29.6939194,14.6274604 C30.5703053,16.4247754 31.0084983,18.8247366 31.0084983,21.8273437 L31.0084983,21.8273437 L31.0084983,29.8612676 L10.7374619,29.8612676 L10.7369133,25.4011862 C11.6050877,24.4931385 12.5851503,23.6023849 13.6665987,22.7386062 L13.6657804,27.23613 C16.4852768,25.2469307 18.4842448,23.4574083 19.6626843,21.867563 L19.6626843,21.867563 L19.712074,21.7984805 C20.6493231,20.5181435 21.2034803,19.2235771 21.3745417,17.9147812 C22.352015,17.4313543 23.3666826,16.9694511 24.4146866,16.5317551 C24.4386866,16.7569083 24.4505269,16.9883234 24.4505269,17.2262555 C24.4505269,17.334138 24.4505269,17.4415471 24.4460818,17.5451709 C24.3996555,18.9072647 24.0456955,20.1259884 23.3842022,21.201342 C22.3911389,22.8129531 20.4376094,24.8381133 17.5236141,27.2768225 L17.5236141,27.2768225 L28.0782042,27.2768225 L28.0806737,21.7847586 C28.0794216,19.0529266 27.7434946,16.9582166 27.0728931,15.5006287 C27.8742085,15.2121295 28.6921183,14.9380563 29.5250439,14.6792777 L29.6939194,14.6274604 Z" id="Combined-Shape" fill="url(#linearGradient-1)"></path>
                <path d="M21.0120123,10.0833076 C24.3609668,10.0858311 26.8633809,11.0088247 28.5192548,12.8522882 C28.6921323,13.0427007 28.8513662,13.2440992 28.9958659,13.4551045 C29.01306,13.4711637 29.0280022,13.489296 29.0403167,13.5090458 L29.0403167,13.5090458 L29.188486,13.7314348 C29.370651,14.0113289 29.5391413,14.3100297 29.6939569,14.6275373 C28.8023778,14.9011984 27.9282058,15.1927159 27.0725645,15.5003453 C27.038143,15.4250977 27.0024944,15.3512775 26.9659471,15.2791682 C26.8061504,14.9560224 26.6114816,14.6497909 26.3851236,14.3654803 C25.2491592,12.9672681 23.5244691,12.2683986 21.1991995,12.2683986 C21.9410336,12.6256406 22.4808636,12.9672681 22.8265919,13.2937542 C23.7490882,14.1568359 24.278558,15.2362396 24.4150012,16.5319654 C23.3666826,16.9694511 22.352015,17.4313543 21.3739196,17.9144822 C21.4127331,17.6225773 21.4318288,17.3296643 21.4318288,17.036042 C21.4331423,15.9379761 21.0763836,15.047158 20.3615492,14.3635876 C19.6467149,13.6800172 18.7942477,13.338232 17.8041478,13.338232 C16.4679904,13.3394938 15.4444701,13.9039835 14.7335869,15.0317012 C14.0227037,16.1594189 13.6672621,18.0155002 13.6672621,20.5999452 L13.6672621,20.5999452 L13.6665987,22.7386062 C12.5851503,23.6023849 11.6050877,24.4931385 10.7369133,25.4011862 L10.7374619,23.7034559 C10.7400961,20.1322973 10.8871129,17.7142498 11.1785125,16.4493133 C11.469912,15.1843768 12.1753623,13.9699116 13.2948634,12.8059177 C14.1954095,11.8450482 15.3394035,11.1229239 16.6163243,10.7093092 C17.903092,10.2919748 19.3683213,10.0833076 21.0120123,10.0833076 Z" id="Combined-Shape" fill="url(#linearGradient-2)"></path>
            </g>
            <g id="Manglish-text" transform="translate(55.000000, 9.000000)" fill="#020407">
                <path d="M7.61559137,4.48443716 C8.67082364,4.48443716 9.65836177,4.68523286 10.5782057,5.08885248 C11.4960587,5.49044387 12.3044065,6.05023793 13.001258,6.76417817 C13.6981095,7.47811842 14.2416536,8.30361183 14.6338815,9.23863016 C15.0241183,10.1736485 15.2152547,11.1755987 15.2072907,12.2424526 L15.1833986,16.7248615 C15.1754346,17.0615493 15.0539834,17.3515875 14.8210359,17.592948 C14.5880884,17.8343084 14.3053658,17.9560028 13.974859,17.9560028 L1.2085396,17.9560028 C0.878032888,17.9560028 0.593319276,17.8343084 0.356389766,17.592948 C0.119460257,17.3515875 0,17.0615493 0,16.7248615 L0,11.9706685 C0,10.9687183 0.19511842,10.0195023 0.585355259,9.11896404 C0.975592098,8.22045401 1.51714526,7.42132772 2.21200576,6.72361339 C2.90487525,6.02589906 3.71322298,5.47827444 4.63505797,5.07871129 C5.55888395,4.68523286 6.55239509,4.48443716 7.61559137,4.48443716 Z M6.90281184,7.00959513 C6.05663502,7.00959513 5.29408038,7.24892737 4.61713893,7.7296201 C3.94019747,8.21031282 3.40461732,8.83095405 3.00840747,9.59560028 C2.61418862,10.3582183 2.41508819,11.1674858 2.41508819,12.0213745 L2.41508819,15.4815508 C3.09202965,15.3740541 3.79485416,15.1489196 4.52356173,14.8041189 C5.25226929,14.4593182 5.93319276,14.0090491 6.56633212,13.4553397 C7.19947148,12.9016304 7.71115958,12.262735 8.10139642,11.5406818 C8.49163326,10.8186286 8.68675168,10.025587 8.68675168,9.1635853 C8.68675168,8.58959357 8.53145334,8.08659022 8.22085667,7.65457524 C7.91623302,7.2245885 7.47622107,7.00959513 6.90281184,7.00959513 Z M11.0381277,8.27724471 C11.0859118,8.57336766 11.1098039,8.86746236 11.1098039,9.1635853 C11.1098039,10.0904907 10.9505235,10.9484359 10.6319629,11.737421 C10.3134022,12.5264061 9.9092283,13.2342616 9.41745025,13.8609876 C8.92567219,14.4897418 8.4179661,15.0333099 7.89433197,15.491692 L12.7663194,15.491692 L12.7782655,11.9706685 C12.7782655,11.2891801 12.6090301,10.6097199 12.2705594,9.93228801 C11.9320887,9.25688431 11.5219418,8.70520321 11.0381277,8.27724471 Z M21.4570531,9.37452219 C22.2634099,9.37452219 22.9881354,9.57734613 23.6332208,9.98502223 C24.2783062,10.3906701 24.7880033,10.9301818 25.1623121,11.5974725 C25.5366209,12.2667915 25.7237753,12.9989859 25.7237753,13.7960839 C25.7237753,14.6094079 25.5326389,15.3517435 25.1503661,16.025119 C24.7680933,16.6984944 24.2504321,17.2359778 23.5973827,17.6375692 C22.9443333,18.0391606 22.2116438,18.2419846 21.397323,18.2419846 C20.6307864,18.2419846 19.9180068,18.0533583 19.2569934,17.6761058 C18.59598,17.2988533 18.0663728,16.7897652 17.668172,16.1488416 C17.2699711,15.5079179 17.0688797,14.7939777 17.0688797,14.0070208 C17.0688797,13.1450191 17.2500611,12.3621187 17.6124239,11.6603479 C17.9747866,10.9585771 18.4864747,10.4028395 19.1474882,9.99110695 C19.8085016,9.57937437 20.5790202,9.37452219 21.4570531,9.37452219 Z M23.4400934,13.7839145 C23.4400934,13.2504876 23.242984,12.7738513 22.8467741,12.356034 C22.4525553,11.9382167 21.9767052,11.7272798 21.4212151,11.7272798 C20.8577608,11.7272798 20.3719558,11.9402449 19.9637999,12.3682034 C19.557635,12.7961619 19.3525616,13.2829394 19.3525616,13.8346205 C19.3525616,14.3761604 19.555644,14.8548249 19.9637999,15.2685857 C20.3699648,15.6823465 20.8438238,15.8912552 21.383386,15.8912552 C21.9806873,15.8912552 22.4704743,15.686403 22.8587201,15.2746704 C23.246966,14.8629378 23.4400934,14.3660192 23.4400934,13.7839145 Z M33.7136755,18.1304314 C32.8436066,18.1304314 32.0352589,17.9519463 31.2906233,17.5949762 C30.5459877,17.2380061 29.8969203,16.7492004 29.3434211,16.1285592 C28.7919129,15.5079179 28.359865,14.7980342 28.0492683,13.9989079 C27.7386716,13.1977533 27.5833733,12.3540058 27.5833733,11.4676652 C27.5833733,10.3602465 27.7904377,9.3542398 28.2065576,8.44964506 C28.6206865,7.54707856 29.1741857,6.76823465 29.8630732,6.11514159 C30.5519607,5.46204852 31.2985873,4.9712146 32.104944,4.64263983 C32.2821434,4.57773617 32.4394327,4.5432561 32.576812,4.5432561 C32.9073188,4.5432561 33.1920324,4.66495046 33.4289619,4.90631094 C33.6658914,5.14767143 33.7853516,5.43770965 33.7853516,5.77439738 C33.7853516,6.00358842 33.7077025,6.23075123 33.5563861,6.45182932 C33.4030788,6.6729074 33.2218974,6.82908183 33.012842,6.9203526 C32.2064852,7.24892737 31.5036607,7.81277791 30.9023774,8.61393244 C30.3010941,9.41508698 30.0024435,10.364303 30.0024435,11.4656369 C30.0024435,12.1958031 30.1637149,12.881348 30.4862575,13.5222716 C30.8088002,14.1631953 31.2488122,14.6803963 31.8043024,15.0738747 C32.3597926,15.4673531 32.9929319,15.6640924 33.7017295,15.6640924 C34.7330697,15.6640924 35.4339032,15.3152352 35.80423,14.6175209 C36.1745568,13.9198065 36.3597202,13.0334659 36.3597202,11.9584991 L36.3597202,10.7273578 C36.3597202,9.52055543 36.5548386,8.44761682 36.9450754,7.50651377 C37.3353123,6.56743896 37.9246495,5.82510336 38.7091052,5.28356346 C39.4955519,4.74202356 40.471144,4.47023949 41.6398635,4.47023949 C42.5178964,4.47023949 43.3342082,4.65480927 44.0887988,5.02394883 C44.8413984,5.39308838 45.5024118,5.8940635 46.0718391,6.52687417 C46.6392753,7.15968484 47.0832692,7.87970981 47.4018299,8.6889773 C47.7203906,9.49824479 47.8796709,10.3419924 47.8796709,11.22022 C47.8796709,12.017318 47.7303456,12.8245573 47.431695,13.6459942 C47.1330443,14.4674312 46.7209064,15.2178797 46.1932903,15.8993681 C45.6656742,16.5808565 45.0564269,17.1305094 44.3675394,17.5503549 C43.6786519,17.9681722 42.9419803,18.1791091 42.1615066,18.1791091 C41.8309999,18.1791091 41.5462863,18.0574148 41.3093568,17.8160543 C41.0724273,17.5746938 40.952967,17.2846556 40.952967,16.9479679 C40.952967,16.6680708 41.0445532,16.4125127 41.2317076,16.1792652 C41.416871,15.9460176 41.6418545,15.7999844 41.9086491,15.7411655 C42.5457705,15.593104 43.1311257,15.3091505 43.6667059,14.8852485 C44.202286,14.4633747 44.636325,13.9360325 44.9668317,13.3093065 C45.2973384,12.6805523 45.4625917,11.9848662 45.4625917,11.2222482 C45.4625917,10.4839691 45.2933564,9.78828302 44.9548857,9.13518995 C44.6164149,8.48209689 44.1584839,7.95272642 43.5830837,7.54707856 C43.0076835,7.14143069 42.3526431,6.93657852 41.6179625,6.93657852 C40.5468022,6.93657852 39.8041576,7.29557688 39.3940107,8.0135736 C38.9838638,8.73157033 38.7767994,9.65441922 38.7767994,10.7780638 L38.7767994,12.0092051 C38.7767994,13.1754427 38.593627,14.219986 38.2272822,15.1428349 C37.8609374,16.0656838 37.3034562,16.7958499 36.5528476,17.3292769 C35.806221,17.8627038 34.8585029,18.1304314 33.7136755,18.1304314 Z M42.9141063,17.9702005 L42.9499443,17.9702005 C43.5452546,18.0269912 44.0967628,18.2419846 44.6004869,18.6111241 C45.104211,18.9802637 45.5083848,19.4548717 45.8149995,20.0329199 C46.1216142,20.6109681 46.2749215,21.245807 46.2749215,21.9354084 C46.2749215,22.6412357 46.1096681,23.3044699 45.7791614,23.9251112 C45.4486547,24.5457524 44.9887327,25.0467275 44.4013865,25.4280365 C43.8120492,25.8093455 43.1311257,26 42.3586161,26 C41.5841154,26 40.8872639,25.8316561 40.2680616,25.4949684 C39.6468682,25.1582807 39.083414,24.7364069 38.5757079,24.2273188 C38.0680018,23.7182308 37.6060889,23.2010297 37.19196,22.6757157 C36.7758401,22.1504017 36.3915762,21.7021609 36.0371775,21.3330213 C36.0849616,21.4973087 36.1148266,21.6453702 36.1287637,21.7772057 C36.1407097,21.9090413 36.1466827,22.0307356 36.1466827,22.1463453 C36.1466827,22.9921211 35.9714743,23.6999766 35.6210576,24.2699118 C35.2706408,24.8398471 34.8147009,25.2698338 34.2552286,25.5558156 C33.6957564,25.8438256 33.0964642,25.9878306 32.4593428,25.9878306 C31.8301854,25.9878306 31.2169561,25.8194867 30.6156728,25.482799 C30.0143895,25.1461112 29.5186295,24.6897574 29.1283926,24.1157657 C28.7381558,23.5417739 28.5430374,22.8967938 28.5430374,22.1828536 C28.5430374,21.3776426 28.7381558,20.6596458 29.1283926,20.0268352 C29.5186295,19.3940245 30.0342996,18.8930494 30.675403,18.5239098 C31.3165063,18.1547703 32.0073848,17.9702005 32.7480384,17.9702005 C33.5384671,17.9702005 34.2412916,18.1121772 34.8585029,18.3941025 C35.4757143,18.6760278 36.0351865,19.0431391 36.5389106,19.4893517 C37.0426346,19.9375926 37.5184847,20.4081442 37.9644696,20.9050628 C38.4124456,21.4019814 38.8504665,21.8745612 39.2825145,22.3207739 C39.7125714,22.7690147 40.1665204,23.1340978 40.6423704,23.4160231 C41.1182204,23.6999766 41.6378725,23.8399251 42.2013267,23.8399251 C42.7090328,23.8399251 43.1510358,23.6573836 43.5253446,23.2923005 C43.8996534,22.9272174 44.0868078,22.4931742 44.0868078,21.9921991 C44.0868078,21.5743818 44.0031856,21.25392 43.8399233,21.0308136 C43.6746699,20.8097355 43.4576504,20.6211093 43.1868739,20.4649349 C42.9160973,20.3087604 42.6214286,20.1323036 42.2988859,19.9355644 L42.2630479,19.9355644 C42.1495606,19.8199548 42.0579744,19.6942039 41.9843073,19.5542554 C41.9126311,19.4143069 41.874802,19.2662454 41.874802,19.110071 C41.874802,18.8463999 41.9663882,18.59287 42.1535426,18.347453 C42.338706,18.1060925 42.5915636,17.9783134 42.9141063,17.9702005 Z M34.0640922,22.1078087 C34.0640922,21.6392854 33.8988389,21.2174117 33.5683322,20.8401591 C33.2378255,20.4629066 32.8436066,20.2742804 32.3836846,20.2742804 C31.9735377,20.2742804 31.5912649,20.4507372 31.2408482,20.8036508 C30.8904314,21.1565645 30.715223,21.584523 30.715223,22.0834698 C30.715223,22.5094001 30.8904314,22.9251892 31.2408482,23.3267806 C31.5912649,23.7283719 32.0133578,23.9311959 32.5031449,23.9311959 C32.9132918,23.9311959 33.2776455,23.7587955 33.5902332,23.4139949 C33.9087939,23.0691942 34.0640922,22.6331227 34.0640922,22.1078087 Z M49.1778057,3.06872611 C49.1778057,3.57781418 49.0424174,4.03213979 48.7736319,4.4296747 C48.5028553,4.82720961 48.1604025,5.13955847 47.7462737,5.36469303 C47.3321448,5.5898276 46.9020878,5.703409 46.4580939,5.703409 C46.0061359,5.703409 45.586034,5.58374288 45.1957972,5.34643888 C44.8055603,5.10913488 44.4929727,4.79475778 44.2580342,4.40533583 C44.0250867,4.01591388 43.9076174,3.5940401 43.9076174,3.14377096 C43.9076174,2.47039551 44.0848168,1.91262969 44.4392155,1.46844528 C44.7936143,1.02426086 45.2515453,0.695686091 45.8110175,0.476636243 C46.3704897,0.259614635 46.957836,0.150089711 47.5690743,0.150089711 C49.2534639,0.150089711 50.5296976,0.620641236 51.3957845,1.55971605 C52.2618714,2.5008191 52.6959103,3.82323114 52.6959103,5.53100866 L52.6600722,17.0696622 C52.6600722,17.4388018 52.53663,17.7186988 52.2917364,17.9073251 C52.0448519,18.0959513 51.7860213,18.1912786 51.5112627,18.1912786 C51.2365042,18.1912786 50.9776736,18.0959513 50.7307891,17.9073251 C50.4839045,17.7186988 50.3624533,17.4347453 50.3624533,17.0574928 L50.3982914,5.5431781 C50.3982914,4.72985412 50.3106872,4.10921289 50.1374698,3.67719791 C49.9642524,3.24518293 49.6397187,2.9287776 49.1638687,2.72189718 C49.1718327,2.78680084 49.1758147,2.84764802 49.1758147,2.90038225 C49.1778057,2.95717295 49.1778057,3.01193541 49.1778057,3.06872611 Z M47.423731,3.11740385 C47.423731,2.60831578 47.1868015,2.35478586 46.7109514,2.35478586 C46.4441569,2.35478586 46.2171824,2.41968952 46.028037,2.55152508 C45.8388916,2.68336064 45.7433233,2.87604337 45.7433233,3.12957329 C45.7433233,3.27763476 45.8369005,3.42772447 46.0220639,3.57984242 C46.2072273,3.73196037 46.4043368,3.80700523 46.6153832,3.80700523 C46.8483307,3.80700523 47.0434491,3.74210157 47.1947655,3.61026601 C47.3480728,3.48045869 47.423731,3.31617131 47.423731,3.11740385 L47.423731,3.11740385 Z M66.7404545,4.41142055 C68.0385893,4.41142055 69.0121904,4.83937905 69.6652398,5.69123957 C70.3182892,6.54512833 70.6448139,7.63632109 70.6448139,8.96684609 L70.6328679,10.0884624 C71.3994045,9.62805211 72.0643999,8.983072 72.6338272,8.14946564 C73.2012634,7.31585927 73.5656172,6.42343397 73.7268885,5.47016148 C73.7746726,5.18215149 73.9160339,4.94079101 74.1509724,4.7440518 C74.3839199,4.54731258 74.6387685,4.44792886 74.9135271,4.44792886 C75.2440338,4.44792886 75.5287474,4.56962322 75.7656769,4.8109837 C76.0026064,5.05234418 76.1220667,5.3423824 76.1220667,5.67907013 L76.1220667,16.7492004 C76.1220667,17.0858881 76.0026064,17.3759264 75.7656769,17.6172868 C75.5287474,17.8586473 75.2440338,17.9803417 74.9135271,17.9803417 L60.1163833,17.9803417 C59.7858765,17.9803417 59.5011629,17.8586473 59.2642334,17.6172868 C59.0273039,17.3759264 58.9078437,17.0858881 58.9078437,16.7492004 C58.9078437,16.5281223 58.9795198,16.3029878 59.1248631,16.0778532 C59.2702064,15.8527186 59.4434238,15.6985724 59.6445152,15.6154146 C59.9670579,15.4754661 60.2418165,15.2503315 60.4668,14.9379827 C60.6917835,14.6256338 60.8052707,14.2443248 60.8052707,13.7920275 C60.8052707,13.2342616 60.6161253,12.7657384 60.2378345,12.3884858 C59.8595437,12.0112333 59.3996217,11.8226071 58.8600595,11.8226071 C58.3284614,11.8226071 57.8725214,12.0132616 57.4942306,12.3945706 C57.1159398,12.7758796 56.9267944,13.2423746 56.9267944,13.7920275 C56.9267944,14.2443248 57.0422726,14.6256338 57.2712381,14.9379827 C57.5002036,15.2503315 57.7769532,15.4754661 58.0994959,15.6154146 C58.3085514,15.6985724 58.4857507,15.8506904 58.6310941,16.0778532 C58.7764374,16.3029878 58.8481135,16.5321788 58.8481135,16.7613698 C58.8481135,17.0980576 58.7286533,17.3880958 58.4917238,17.6294563 C58.2547942,17.8708168 57.9700806,17.9925111 57.6395739,17.9925111 C57.4703386,17.9925111 57.3050852,17.9560028 57.1438139,17.880958 C56.4350163,17.5686091 55.817805,17.059521 55.2941709,16.3536937 C54.7705368,15.6478664 54.5077242,14.7980342 54.5077242,13.8041969 C54.5077242,12.9665341 54.7028426,12.2140573 55.0930795,11.5447383 C55.4833163,10.8754193 56.0089414,10.3440206 56.6699548,9.95054216 C57.3309683,9.55706373 58.0636578,9.36032452 58.8700146,9.36032452 C59.6763713,9.36032452 60.4070699,9.55706373 61.0641013,9.95054216 C61.7211327,10.3440206 62.2447668,10.8774475 62.6350037,11.550823 C63.0252405,12.2241985 63.2203589,12.974647 63.2203589,13.8041969 C63.2203589,14.4126687 63.1068717,14.9826039 62.8818882,15.5160309 L68.1759686,15.5160309 L68.1879146,13.3742102 C68.1162384,13.3823231 68.0425713,13.3863796 67.9708951,13.3863796 C67.899219,13.3863796 67.8255518,13.3863796 67.7538757,13.3863796 C66.6827154,13.3863796 65.7648624,13.1328497 65.0042988,12.6237616 C64.2417441,12.1146735 63.6623619,11.4717217 63.264161,10.6969342 C62.8659602,9.92011857 62.6648687,9.13518995 62.6648687,8.33809189 C62.6648687,7.67282939 62.808221,7.04001872 63.0949257,6.44168812 C63.3816303,5.84335752 63.8256242,5.35455184 64.4308895,4.97527108 C65.0361548,4.60004681 65.8066735,4.41142055 66.7404545,4.41142055 Z M66.7643465,6.64045557 C66.4338398,6.64045557 66.1292162,6.74592402 65.8524666,6.95483267 C65.573726,7.16374132 65.3507335,7.42944067 65.1814981,7.74990249 C65.0122628,8.0703643 64.9266496,8.39082612 64.9266496,8.71128793 C64.9266496,9.43334113 65.2173362,9.98299399 65.7967185,10.3622747 C66.3761007,10.7395273 67.0410961,10.9281535 67.7917048,10.9281535 C67.8633809,10.9281535 67.9350571,10.9261253 68.0027512,10.9220688 C68.0704454,10.9180123 68.1421215,10.9119276 68.2137977,10.9038147 C68.2137977,10.5671269 68.2157887,10.2304392 68.2197707,9.89375146 C68.2237527,9.55706373 68.2257437,9.22443248 68.2257437,8.89585771 C68.2257437,8.29752711 68.1242025,7.77018488 67.923111,7.31991575 C67.7240106,6.86559014 67.3377558,6.64045557 66.7643465,6.64045557 Z M73.7049875,10.7537249 C72.8110265,11.6725174 71.7836683,12.3621187 70.6229128,12.8225291 L70.5990208,15.5200874 L73.7049875,15.5200874 L73.7049875,10.7537249 Z M79.0349059,2.00998518 C79.0349059,1.89437554 79.0209689,1.77470942 78.9930948,1.64693034 C78.9652208,1.51915126 78.9512837,1.35283563 78.9512837,1.14798346 C78.9512837,0.859973477 79.074726,0.614556518 79.3196195,0.409704345 C79.5645131,0.204852173 79.8173706,0.101411967 80.0742102,0.101411967 C80.5819163,0.101411967 80.920387,0.302207661 81.0896223,0.705827288 C81.2588577,1.10741868 81.3444709,1.50698182 81.3444709,1.90046025 C81.3444709,2.73001014 81.1593075,3.47640222 80.7889807,4.14166472 C80.4186539,4.80692722 79.9149298,5.3322412 79.2778084,5.71760668 C78.6406871,6.10297215 77.9199435,6.29565489 77.1135868,6.29565489 C76.299266,6.29565489 75.5805135,6.09283095 74.9553382,5.68515485 C74.3301628,5.27950698 73.8423668,4.74810828 73.49195,4.09095873 C73.1415333,3.43380919 72.9663249,2.74015134 72.9663249,2.00998518 C72.9663249,1.7483423 72.9941989,1.4643888 73.0519381,1.1601529 C73.1076862,0.855916998 73.2291374,0.596302364 73.4143008,0.377252516 C73.5994642,0.160230907 73.8782048,0.0507059833 74.2485316,0.0507059833 C74.5073622,0.0507059833 74.7562377,0.158202668 74.9971492,0.371167798 C75.2380608,0.584132928 75.359512,0.831578126 75.359512,1.10944691 C75.359512,1.30618613 75.345575,1.47250176 75.3177009,1.60839379 C75.2898269,1.74428583 75.2758898,1.8822061 75.2758898,2.02012637 C75.2758898,2.56166628 75.4610532,3.01396365 75.83138,3.37499025 C76.2017068,3.73601685 76.6297728,3.91653015 77.1135868,3.91653015 C77.661113,3.91653015 78.119044,3.72384741 78.4853887,3.33848194 C78.8517335,2.95514471 79.0349059,2.51096029 79.0349059,2.00998518 Z" id="Shape"></path>
                <path d="M90.5668027,18.1547703 C89.8082301,18.1547703 89.1153606,17.966144 88.4881942,17.5888915 C87.8610279,17.211639 87.3573038,16.7066074 86.982995,16.0737967 C86.6086862,15.440986 86.4215318,14.7392152 86.4215318,13.9684843 C86.4215318,12.8935174 86.7042544,12.0051486 87.2677086,11.3013496 C87.8311628,10.5995788 88.5618614,10.0702083 89.4558223,9.71323816 C90.3497833,9.35626804 91.2895373,9.16155706 92.2730934,9.12910523 C92.4741848,8.34823309 92.8027005,7.60184102 93.2586405,6.88790077 C93.7145805,6.17396053 94.2999357,5.5898276 95.0166973,5.13955847 C95.7334588,4.6872611 96.5716716,4.46212653 97.5313357,4.46212653 C98.4989638,4.46212653 99.3371766,4.68523286 100.045974,5.13347375 C100.754772,5.58171464 101.340127,6.15773461 101.798058,6.8635619 C102.25798,7.56938919 102.588487,8.31172478 102.789578,9.09259693 C103.675575,9.14127467 104.485914,9.35221156 105.218603,9.72135112 C105.951293,10.0904907 106.538639,10.6097199 106.97666,11.2790389 C107.416672,11.9483579 107.635682,12.7596536 107.635682,13.7108979 C107.635682,14.5242219 107.438573,15.2665575 107.042363,15.9399329 C106.648144,16.6133084 106.118537,17.15282 105.459515,17.5584679 C104.798501,17.9641158 104.065812,18.1689679 103.259455,18.1689679 C102.839353,18.1689679 102.490927,18.0614713 102.214178,17.8485061 C101.937428,17.635541 101.798058,17.3272486 101.798058,16.9256572 C101.798058,16.5078399 101.939419,16.1995475 102.222142,16.0028083 C102.504864,15.8060691 102.847317,15.7066854 103.2495,15.7066854 C103.797026,15.7066854 104.262921,15.5099462 104.645194,15.1164677 C105.027467,14.7229893 105.218603,14.254466 105.218603,13.7129261 C105.218603,13.0638895 105.003575,12.5669709 104.571527,12.2221702 C104.139479,11.8773695 103.637746,11.6684609 103.066328,11.593416 C103.0504,12.6927217 102.823425,13.7474062 102.383413,14.7513847 C101.943401,15.7573914 101.316235,16.5768001 100.497932,17.2075825 C99.6796293,17.8403932 98.6901002,18.1567985 97.5293447,18.1567985 C96.7707721,18.1567985 96.0739206,17.9925111 95.4387902,17.6639363 C94.8016688,17.3353616 94.2740527,16.9540526 93.8559418,16.5179811 C93.477651,17.0189562 92.9958279,17.4164911 92.4104727,17.7126141 C91.8251174,18.0067088 91.2098971,18.1547703 90.5668027,18.1547703 Z M90.5289736,15.6924877 C91.0207517,15.6924877 91.4388626,15.5160309 91.7852973,15.1631172 C92.1317321,14.8102036 92.3049495,14.3802169 92.3049495,13.8691006 C92.3049495,13.4837351 92.2551743,13.1064826 92.1536331,12.7353148 C92.0520919,12.3661752 91.9983348,11.9929792 91.9903708,11.6136984 C91.4826647,11.6542632 90.9869046,11.7577034 90.5030906,11.9219908 C90.0192765,12.0862782 89.6210757,12.3296669 89.306497,12.6541852 C88.9919183,12.9787035 88.834629,13.4107185 88.834629,13.9542866 C88.834629,14.4309228 88.9998823,14.838599 89.3303891,15.1793432 C89.6628868,15.5221156 90.0630786,15.6924877 90.5289736,15.6924877 Z M100.647257,11.5406818 L94.409441,11.5650207 C94.425369,12.254622 94.5508023,12.9137998 94.7837498,13.542554 C95.0166973,14.1713082 95.361141,14.686481 95.817081,15.0880724 C96.273021,15.4896638 96.8384662,15.6924877 97.5154077,15.6924877 C98.2003131,15.6924877 98.7717314,15.4876355 99.2316533,15.075903 C99.6915753,14.6661986 100.040001,14.1429129 100.276931,13.5060457 C100.517842,12.8691786 100.639293,12.2140573 100.647257,11.5406818 Z M100.237111,9.07839925 C100.028055,8.54497231 99.6955573,8.05211015 99.2396174,7.59981278 C98.7836774,7.14751541 98.2102682,6.92238084 97.5173987,6.92238084 C96.8245292,6.92238084 96.2551019,7.15157189 95.807126,7.61198221 C95.35915,8.07239254 95.0306343,8.56931118 94.8215789,9.10273812 L100.237111,9.07839925 Z M108.929835,3.06872611 C108.929835,3.57781418 108.794447,4.03213979 108.525661,4.4296747 C108.254885,4.82720961 107.912432,5.13955847 107.498303,5.36469303 C107.084174,5.5898276 106.654117,5.703409 106.210123,5.703409 C105.758165,5.703409 105.338063,5.58374288 104.947827,5.34643888 C104.55759,5.10913488 104.245002,4.79475778 104.010064,4.40533583 C103.777116,4.01591388 103.659647,3.5940401 103.659647,3.14377096 C103.659647,2.47039551 103.836846,1.91262969 104.191245,1.46844528 C104.545644,1.02426086 105.003575,0.695686091 105.563047,0.476636243 C106.122519,0.259614635 106.709865,0.150089711 107.321104,0.150089711 C109.005493,0.150089711 110.281727,0.620641236 111.147814,1.55971605 C112.013901,2.5008191 112.44794,3.82323114 112.44794,5.53100866 L112.412102,17.0696622 C112.412102,17.4388018 112.288659,17.7186988 112.043766,17.9073251 C111.796881,18.0959513 111.538051,18.1912786 111.263292,18.1912786 C110.988534,18.1912786 110.729703,18.0959513 110.482819,17.9073251 C110.235934,17.7186988 110.114483,17.4347453 110.114483,17.0574928 L110.150321,5.5431781 C110.150321,4.72985412 110.062717,4.10921289 109.889499,3.67719791 C109.716282,3.24518293 109.391748,2.9287776 108.915898,2.72189718 C108.923862,2.78680084 108.927844,2.84764802 108.927844,2.90038225 C108.929835,2.95717295 108.929835,3.01193541 108.929835,3.06872611 Z M107.17576,3.11740385 C107.17576,2.60831578 106.938831,2.35478586 106.462981,2.35478586 C106.196186,2.35478586 105.969212,2.41968952 105.780066,2.55152508 C105.590921,2.68336064 105.495353,2.87604337 105.495353,3.12957329 C105.495353,3.27763476 105.58893,3.42772447 105.774093,3.57984242 C105.959257,3.73196037 106.156366,3.80700523 106.367413,3.80700523 C106.60036,3.80700523 106.795479,3.74210157 106.946795,3.61026601 C107.100102,3.48045869 107.17576,3.31617131 107.17576,3.11740385 L107.17576,3.11740385 Z M114.259754,11.1837117 C114.259754,10.2973711 114.419034,9.45159529 114.737595,8.64638427 C115.056155,7.84117326 115.496167,7.12520477 116.061613,6.49645058 C116.625067,5.86769639 117.28608,5.37483423 118.044653,5.01177939 C118.801234,4.65075279 119.615555,4.47023949 120.485624,4.47023949 L120.49757,4.47023949 C121.206368,4.47023949 121.889282,4.60815976 122.546313,4.88197207 C123.203345,5.15781262 123.742907,5.56548873 124.166991,6.10702863 C124.591075,6.64856853 124.802121,7.31788751 124.802121,8.11498557 C124.802121,8.98510024 124.513426,9.71120992 123.938025,10.2953429 C123.362625,10.8774475 122.645864,11.169514 121.791723,11.169514 C120.91369,11.169514 120.181,10.8652781 119.597636,10.2588345 C119.012281,9.65036274 118.721594,8.90397067 118.721594,8.01763008 C118.721594,7.90202044 118.725576,7.79249551 118.73354,7.68499883 C118.741504,7.57750215 118.757432,7.4720337 118.781324,7.36453702 C118.184023,7.67688587 117.684281,8.18597394 117.282098,8.89180123 C116.879915,9.59762852 116.676833,10.3541618 116.676833,11.1573446 C116.676833,11.9868945 116.881906,12.7353148 117.294044,13.4046337 C117.704191,14.0739527 118.188005,14.5891255 118.745486,14.9501521 C118.737522,14.8933614 118.731549,14.8365707 118.727567,14.7838365 C118.723585,14.7311023 118.721594,14.6743116 118.721594,14.6175209 C118.721594,14.0110773 118.860965,13.4634527 119.137714,12.9787035 C119.416455,12.4939543 119.794746,12.1106171 120.274578,11.8266635 C120.75441,11.54271 121.287999,11.4027615 121.875345,11.4027615 C122.48061,11.4027615 123.018181,11.5487948 123.49005,11.8408612 C123.961918,12.1329277 124.330253,12.5162649 124.597048,12.9929012 C124.863842,13.4695374 124.995249,13.9948514 124.995249,14.5688431 C124.995249,15.2908963 124.808094,15.923707 124.433786,16.4652469 C124.059477,17.0067868 123.567699,17.4266323 122.958451,17.720727 C122.349204,18.01685 121.696155,18.1649115 120.99333,18.1649115 C120.065522,18.1649115 119.195453,17.9803417 118.383124,17.6112021 C117.568803,17.2420626 116.852041,16.7350027 116.230848,16.0900226 C115.609655,15.4450425 115.125841,14.7027069 114.779406,13.8609876 C114.432971,13.0212965 114.259754,12.1288712 114.259754,11.1837117 Z M121.730002,9.00538264 C121.970913,9.00538264 122.179969,8.91816834 122.353186,8.745768 C122.526403,8.57336766 122.614008,8.36445901 122.614008,8.11701381 C122.614008,7.86956861 122.526403,7.6626882 122.353186,7.49434433 C122.179969,7.32600047 121.972904,7.24284266 121.730002,7.24284266 C121.48909,7.24284266 121.280035,7.32802871 121.106817,7.49434433 C120.9336,7.6626882 120.845996,7.86956861 120.845996,8.11701381 C120.845996,8.36445901 120.931609,8.57336766 121.106817,8.745768 C121.280035,8.91816834 121.48909,9.00538264 121.730002,9.00538264 Z M121.911183,13.7332085 C121.670272,13.7332085 121.459225,13.8204228 121.282026,13.9928232 C121.104826,14.1652235 121.015231,14.3741321 121.015231,14.6215773 C121.015231,14.8690225 121.102835,15.0779312 121.282026,15.2503315 C121.459225,15.4227319 121.668281,15.5099462 121.911183,15.5099462 C122.152095,15.5099462 122.36115,15.4227319 122.534367,15.2503315 C122.707585,15.0779312 122.795189,14.8690225 122.795189,14.6215773 C122.795189,14.3741321 122.707585,14.1652235 122.534367,13.9928232 C122.36115,13.8204228 122.154086,13.7332085 121.911183,13.7332085 Z M134.183733,4.47226773 C135.360417,4.47226773 136.389766,4.73593884 137.271781,5.26125283 C138.153796,5.78656681 138.848657,6.42749044 139.356363,7.18199548 C139.832213,6.45994227 140.485262,5.8372728 141.315511,5.31601529 C142.14576,4.79475778 143.121352,4.53311491 144.240296,4.53311491 C145.118329,4.53311491 145.938623,4.70957173 146.701177,5.06248537 C147.463732,5.41539902 148.130718,5.90217646 148.70811,6.52078945 C149.28351,7.14143069 149.735468,7.84928622 150.061993,8.64435603 C150.388517,9.44145409 150.55178,10.2831734 150.55178,11.169514 C150.55178,12.0558546 150.410418,12.8691786 150.127696,13.6074577 C149.844973,14.3457368 149.454736,15.0231687 148.954994,15.6397535 L153.500457,15.6519229 L153.500457,5.70138076 C153.500457,5.36469303 153.619917,5.07465481 153.856847,4.83329433 C154.093776,4.59193385 154.37849,4.47023949 154.708997,4.47023949 C155.039503,4.47023949 155.324217,4.59193385 155.561146,4.83329433 C155.798076,5.07465481 155.917536,5.36469303 155.917536,5.70138076 L155.917536,16.8952336 C155.917536,17.2319214 155.798076,17.5219596 155.561146,17.7633201 C155.324217,18.0046806 155.039503,18.1263749 154.708997,18.1263749 L154.697051,18.1263749 L144.507091,18.0898666 C144.176584,18.0898666 143.893861,17.9681722 143.660914,17.7268118 C143.427966,17.4854513 143.310497,17.1954131 143.310497,16.8587253 C143.310497,16.5626024 143.412038,16.296903 143.61313,16.0575708 C143.814221,15.8202668 144.057124,15.6803183 144.337855,15.6397535 C145.014797,15.5322568 145.641963,15.2766987 146.217363,14.8710508 C146.792764,14.4654029 147.256668,13.9461736 147.607084,13.313363 C147.957501,12.6805523 148.132709,11.974725 148.132709,11.1958811 C148.132709,10.4413761 147.959492,9.74771823 147.613057,9.11490756 C147.266623,8.48209689 146.796746,7.97300882 146.205417,7.58764334 C145.612098,7.20227787 144.949094,7.00959513 144.216404,7.00959513 C143.280632,7.00959513 142.549933,7.24892737 142.022317,7.7296201 C141.494701,8.21031282 141.124374,8.85326469 140.909346,9.65644746 C140.696308,10.4616585 140.588794,11.3520555 140.588794,12.3296669 L140.588794,16.8992901 C140.58083,17.2359778 140.459379,17.5219596 140.226431,17.7552071 C139.993484,17.9884546 139.710761,18.1060925 139.380255,18.1060925 C139.057712,18.1060925 138.77698,17.9864264 138.540051,17.7491224 C138.303121,17.5118184 138.179679,17.2278649 138.171715,16.8992901 L138.159769,12.3296669 C138.159769,11.2871519 138.036327,10.3622747 137.791433,9.55300725 C137.544549,8.74373976 137.134402,8.10687261 136.559002,7.63834933 C135.983601,7.16982604 135.195164,6.93657852 134.19568,6.93657852 C133.243979,6.93657852 132.39183,7.20227787 131.63923,7.73164833 C130.884639,8.2610188 130.315212,8.8796318 129.928957,9.58545908 C130.500376,9.33192917 131.089713,9.20415009 131.692987,9.20415009 C132.515272,9.20415009 133.255926,9.4008893 133.916939,9.79436774 C134.577952,10.1878462 135.103577,10.7192449 135.493814,11.3885639 C135.884051,12.0578828 136.07917,12.8103596 136.07917,13.6480225 C136.07917,14.4694594 135.895997,15.2077385 135.529652,15.8648881 C135.163308,16.5220376 134.661575,17.0412669 134.024453,17.4225759 C133.387332,17.8038849 132.654642,17.9945394 131.824393,17.9945394 C130.801017,17.9945394 129.913029,17.72884 129.158439,17.1994695 C128.403848,16.6700991 127.824466,15.9683283 127.418301,15.0941571 C127.012136,14.219986 126.807063,13.2687417 126.807063,12.2424526 C126.807063,11.1837117 126.994217,10.1837897 127.368526,9.24471488 C127.742835,8.30564007 128.266469,7.47811842 128.939428,6.76417817 C129.612388,6.05023793 130.394852,5.49044387 131.284831,5.08276777 C132.178792,4.6771199 133.144429,4.47226773 134.183733,4.47226773 Z M133.664081,13.6845308 C133.664081,13.118652 133.476927,12.6399875 133.102618,12.2505656 C132.728309,11.8611436 132.266396,11.6664326 131.71887,11.6664326 C131.147452,11.6664326 130.673593,11.8550589 130.299284,12.2323114 C129.924975,12.6095639 129.737821,13.0902567 129.737821,13.6723613 C129.737821,14.2463531 129.952849,14.7006787 130.384897,15.0333099 C130.814954,15.3659412 131.292795,15.5322568 131.816429,15.5322568 C132.340064,15.5322568 132.780075,15.3558 133.134474,15.0028863 C133.486882,14.6499727 133.664081,14.2098448 133.664081,13.6845308 Z M165.735178,11.1958811 C165.735178,10.4981668 165.615718,9.82276309 165.378789,9.16967002 C165.141859,8.51657696 164.78746,7.97909353 164.321565,7.55721975 C163.853679,7.13534597 163.270315,6.92238084 162.569482,6.92238084 C161.956252,6.92238084 161.430627,7.13737421 160.992606,7.56938919 C160.552594,8.00140417 160.309692,8.50643576 160.261908,9.09056869 C160.238016,9.40291754 160.106609,9.6686169 159.86968,9.89172322 C159.63275,10.1128013 159.359983,10.2243545 159.053368,10.2243545 C158.722861,10.2243545 158.438148,10.1026601 158.201218,9.86129963 C157.964289,9.61993915 157.844828,9.32990093 157.844828,8.9932132 C157.844828,8.97698728 157.846819,8.95670489 157.850801,8.93236602 C157.854783,8.90802715 157.856774,8.88774475 157.856774,8.87151884 C157.928451,8.07442078 158.181308,7.34222638 158.611365,6.6729074 C159.043413,6.00358842 159.602885,5.46813324 160.291773,5.06654185 C160.98066,4.66495046 161.745206,4.46212653 162.583419,4.46212653 C163.469415,4.46212653 164.257853,4.65075279 164.946741,5.0280053 C165.635628,5.40525782 166.217001,5.91434589 166.692851,6.55526952 C167.168701,7.19619315 167.531064,7.91621811 167.77994,8.71737265 C168.028815,9.51852719 168.154249,10.3419924 168.154249,11.1857399 C168.154249,12.0558546 168.028815,12.9097433 167.77994,13.7474062 C167.529073,14.585069 167.162728,15.3395741 166.678914,16.0129495 C166.1951,16.686325 165.59979,17.2217802 164.889002,17.6193151 C164.180204,18.01685 163.361901,18.2156174 162.434093,18.2156174 C161.579952,18.2156174 160.805452,18.0107653 160.112582,17.5990327 C159.419713,17.1893283 158.862232,16.643732 158.438148,15.9602153 C158.014064,15.2787269 157.779125,14.5282783 157.731341,13.7068414 L157.731341,13.6216554 C157.731341,13.2849676 157.850801,12.9949294 158.087731,12.7535689 C158.32466,12.5122084 158.609374,12.3905141 158.939881,12.3905141 C159.262423,12.3905141 159.543155,12.5040955 159.780085,12.72923 C160.017014,12.9543646 160.140456,13.2322334 160.14842,13.5608082 C160.18824,14.1510258 160.427161,14.6641704 160.8612,15.1002418 C161.29723,15.5363133 161.820864,15.7533349 162.432102,15.7533349 C163.172756,15.7533349 163.787976,15.5282003 164.275772,15.075903 C164.763568,14.6236056 165.127922,14.0475856 165.368834,13.3458148 C165.613727,12.644044 165.735178,11.9280755 165.735178,11.1958811 Z M175.67029,13.067946 C175.67029,12.1572666 175.80966,11.3601685 176.08641,10.6786801 C176.36515,9.99719167 176.691675,9.36235276 177.065984,8.77619159 C177.440292,8.19003042 177.77279,7.59169982 178.063477,6.98525626 C177.862385,6.95280443 177.627447,6.93657852 177.362643,6.93657852 C176.44479,6.93657852 175.608569,7.1576566 174.853978,7.60184102 C174.099387,8.04602543 173.498104,8.64029956 173.046146,9.38669163 C172.594188,10.1330837 172.369205,10.9585771 172.369205,11.8611436 C172.369205,12.8063031 172.612107,13.6399095 173.099903,14.3680474 C173.587699,15.0941571 174.153144,15.6377253 174.79823,15.9987519 C174.975429,16.0981356 175.126746,16.25431 175.252179,16.4672751 C175.377612,16.6802403 175.439333,16.8911772 175.439333,17.0960293 C175.439333,17.4327171 175.319873,17.7227553 175.082943,17.9641158 C174.846014,18.2054762 174.5613,18.3271706 174.230794,18.3271706 C174.029702,18.3271706 173.832593,18.2744364 173.637474,18.1669397 C172.976461,17.7978001 172.365223,17.3069662 171.80575,16.6944379 C171.246278,16.0819097 170.796311,15.3679694 170.45784,14.5526172 C170.11937,13.7352368 169.950134,12.838755 169.950134,11.8611436 C169.950134,10.8510804 170.13928,9.89983618 170.517571,9.0033544 C170.895861,8.10890085 171.423478,7.32194399 172.100419,6.64451205 C172.77736,5.96708012 173.561816,5.43568141 174.451795,5.05031594 C175.341774,4.66495046 176.295465,4.47226773 177.310877,4.47226773 C177.519933,4.47226773 177.73297,4.47835245 177.951981,4.49052188 C178.169,4.50269132 178.382038,4.52905843 178.593084,4.56962322 C178.537336,4.04430923 178.38602,3.58998362 178.139135,3.20867462 C177.89225,2.82736563 177.5936,2.50893205 177.239201,2.2533739 C177.093858,2.15399017 176.968424,2.0059287 176.864892,1.80310477 C176.759369,1.60230907 176.707603,1.41165458 176.707603,1.23114127 C176.707603,0.894453546 176.827063,0.604415321 177.063993,0.36305484 C177.300922,0.12169436 177.585636,0 177.916143,0 C178.174973,0 178.407921,0.079101334 178.616976,0.233247523 C179.270025,0.693657852 179.835471,1.32646852 180.315303,2.13573602 C180.795135,2.94500351 181.034055,3.87393712 181.034055,4.9245651 C181.034055,5.00772291 181.032064,5.08682425 181.028082,5.16389734 C181.0241,5.24299867 181.018127,5.32615649 181.010163,5.41539902 C181.985755,5.94882596 182.825959,6.67899212 183.530775,7.60792574 C184.23559,8.53483111 184.729359,9.56112021 185.012082,10.686793 C185.091722,10.9991419 185.155434,11.3196037 185.199236,11.6481785 C185.243038,11.9767533 185.264939,12.3093845 185.264939,12.6460722 C185.264939,13.0983696 185.219146,13.5486387 185.125569,14.0009361 C185.031992,14.4532335 184.886649,14.8953897 184.683566,15.3314611 C184.337131,16.0778532 183.79956,16.7512286 183.068862,17.3515875 C182.340154,17.9519463 181.446193,18.2500975 180.390961,18.2500975 C179.584604,18.2500975 178.873816,18.0634995 178.256604,17.6903035 C177.639393,17.3171074 177.141642,16.8830642 176.763351,16.390202 C176.393024,15.9054528 176.116275,15.3781106 175.935093,14.8081754 C175.759885,14.2402684 175.67029,13.6601919 175.67029,13.067946 Z M178.123207,12.5750839 C178.099315,12.7231453 178.087369,12.8752633 178.087369,13.0314377 C178.087369,13.737265 178.294433,14.3741321 178.710553,14.9400109 C179.124682,15.5058897 179.688136,15.7898432 180.396934,15.7898432 C180.912604,15.7898432 181.350625,15.6316405 181.709006,15.3152352 C182.067386,14.9988299 182.336172,14.6520009 182.513371,14.2747484 C182.626859,14.0293315 182.70849,13.7656603 182.760256,13.4857633 C182.812022,13.2058663 182.837905,12.9198845 182.837905,12.6237616 C182.837905,12.1876901 182.782157,11.7495905 182.66867,11.305406 C182.49147,10.6076917 182.198793,9.95865512 181.792628,9.36032452 C181.386463,8.76199392 180.900658,8.26913176 180.335213,7.88173805 C180.118193,8.35837429 179.847417,8.86543412 179.524874,9.40291754 C179.202331,9.94040097 178.905672,10.4799126 178.636886,11.0214525 C178.3681,11.5670489 178.196874,12.0842499 178.123207,12.5750839 L178.123207,12.5750839 Z M203.831054,16.2461971 C203.508512,16.771511 203.072482,17.2359778 202.520973,17.6395975 C201.969465,18.0411889 201.306461,18.2440128 200.533951,18.2440128 C199.534467,18.2440128 198.722137,17.9519463 198.09298,17.3678134 C197.463823,16.7836805 197.00191,16.0372884 196.703259,15.1245807 C196.404608,14.211873 196.255283,13.2667135 196.255283,12.2891021 C196.255283,11.9605273 196.261256,11.6400655 196.273202,11.3277167 C196.285148,11.0153678 196.291121,10.6989625 196.291121,10.3785007 C196.291121,9.36032452 196.07012,8.52874639 195.626126,7.88782276 C195.182132,7.24689913 194.46537,6.92643732 193.475841,6.92643732 C192.743151,6.92643732 192.084129,7.12520477 191.500765,7.52476792 C190.9174,7.92433107 190.451505,8.44761682 190.105071,9.09665341 C189.758636,9.74568999 189.585419,10.4535455 189.585419,11.2161635 C189.585419,11.9889227 189.744699,12.686637 190.06326,13.3113347 C190.38182,13.9360325 190.799931,14.4613464 191.319583,14.8893049 C191.839235,15.3172634 192.404681,15.6174429 193.01791,15.7898432 C193.266786,15.8547469 193.481814,16.0048366 193.659013,16.2401123 C193.836213,16.4753881 193.923817,16.7228333 193.923817,16.9865044 C193.923817,17.3231921 193.804357,17.6132304 193.567427,17.8566191 C193.330498,18.1000078 193.045784,18.2196739 192.715277,18.2196739 C192.617718,18.2196739 192.506222,18.203448 192.376807,18.1709962 C191.443026,17.9073251 190.580921,17.4509712 189.790492,16.8019346 C189.000063,16.152898 188.366924,15.3517435 187.887092,14.398471 C187.40726,13.4451985 187.168339,12.3803729 187.168339,11.2060223 C187.168339,10.2933146 187.329611,9.43334113 187.652153,8.62407364 C187.974696,7.81480615 188.422672,7.09680942 189.000063,6.47211171 C189.575464,5.84741399 190.244441,5.35658008 191.005005,4.99960995 C191.765568,4.64263983 192.589844,4.46415477 193.475841,4.46415477 C194.578857,4.46415477 195.522593,4.71971293 196.303067,5.228801 C197.083541,5.73788907 197.680842,6.4356034 198.090989,7.31788751 C198.501136,8.20219986 198.7082,9.21023481 198.7082,10.3440206 C198.7082,10.6482565 198.702227,10.9443794 198.690281,11.2323894 C198.678335,11.5203994 198.672362,11.8124659 198.672362,12.1085888 C198.672362,12.6683829 198.720146,13.2281769 198.817705,13.7920275 C198.915265,14.355878 199.098437,14.8284578 199.367223,15.2097668 C199.636008,15.5910757 200.034209,15.7837585 200.557843,15.7837585 C200.983918,15.7837585 201.322389,15.6377253 201.573255,15.3456588 C201.822131,15.0535923 202.005303,14.678368 202.122773,14.2179577 C202.240242,13.7575474 202.313909,13.2646852 202.345765,12.7393712 C202.377621,12.2140573 202.393549,11.7191669 202.393549,11.2607848 L202.393549,5.7135502 C202.401513,5.38497543 202.522964,5.10102192 202.755912,4.86371792 C202.988859,4.62641392 203.271582,4.5067478 203.602089,4.5067478 C203.924631,4.5067478 204.203372,4.62438568 204.442293,4.8576332 C204.679222,5.09290896 204.802664,5.37686247 204.810628,5.7135502 L204.810628,11.2851236 C204.810628,12.1491536 204.916152,12.9178563 205.125207,13.5973165 C205.334262,14.2747484 205.682688,14.8081754 206.170484,15.1935408 C206.65828,15.5809346 207.315312,15.7736173 208.145561,15.7736173 C208.933998,15.7736173 209.654742,15.5748498 210.301818,15.1752867 C210.950886,14.7757235 211.464565,14.2422966 211.842855,13.5729776 C212.221146,12.9036586 212.410292,12.1653795 212.410292,11.3601685 C212.410292,10.5711834 212.215173,9.84101724 211.824936,9.17169826 C211.4347,8.50237928 210.909074,7.96489586 210.248061,7.56330447 C209.587048,7.16171308 208.850376,6.95888915 208.036055,6.95888915 C207.882748,6.95888915 207.733423,6.97105858 207.588079,6.99539746 C207.442736,7.01973633 207.293411,7.03190576 207.140103,7.03190576 C206.809597,7.03190576 206.524883,6.9102114 206.287954,6.66885092 C206.051024,6.4254622 205.931564,6.13745222 205.931564,5.79873625 C205.931564,5.51072627 206.033105,5.24705515 206.234196,5.00975115 C206.435288,4.77244715 206.67819,4.63249863 206.958922,4.58990561 C207.361105,4.52500195 207.731432,4.49052188 208.069902,4.49052188 C209.011647,4.49052188 209.891671,4.67306342 210.709974,5.04017474 C211.528277,5.40525782 212.245038,5.90826117 212.860259,6.54512833 C213.475479,7.18199548 213.957302,7.91621811 214.303737,8.745768 C214.650171,9.57531789 214.823389,10.4515173 214.823389,11.3723379 C214.823389,12.3174975 214.650171,13.2058663 214.303737,14.0354162 C213.957302,14.8649661 213.479461,15.5971605 212.872205,16.2299711 C212.264948,16.8627818 211.55416,17.3576722 210.739839,17.7146423 C209.925518,18.0716125 209.055449,18.2500975 208.129632,18.2500975 C207.162004,18.2500975 206.323792,18.0634995 205.611012,17.6882752 C204.900224,17.3089945 204.304913,16.83033 203.831054,16.2461971 Z M217.690435,2.00998518 C217.690435,1.89437554 217.676498,1.77470942 217.648624,1.64693034 C217.62075,1.51915126 217.606813,1.35283563 217.606813,1.14798346 C217.606813,0.859973477 217.730255,0.614556518 217.975149,0.409704345 C218.220042,0.204852173 218.4729,0.101411967 218.729739,0.101411967 C219.237445,0.101411967 219.575916,0.302207661 219.745151,0.705827288 C219.914387,1.10741868 220,1.50698182 220,1.90046025 C220,2.73001014 219.814837,3.47640222 219.44451,4.14166472 C219.074183,4.80692722 218.570459,5.3322412 217.933338,5.71760668 C217.296216,6.10297215 216.575473,6.29565489 215.769116,6.29565489 C214.954795,6.29565489 214.236043,6.09283095 213.610867,5.68515485 C212.985692,5.27950698 212.497896,4.74810828 212.147479,4.09095873 C211.797062,3.43380919 211.621854,2.74015134 211.621854,2.00998518 C211.621854,1.74631407 211.649728,1.4643888 211.707467,1.1601529 C211.763215,0.855916998 211.884667,0.596302364 212.06983,0.377252516 C212.254993,0.160230907 212.533734,0.0507059833 212.904061,0.0507059833 C213.162891,0.0507059833 213.411767,0.158202668 213.652678,0.371167798 C213.89359,0.584132928 214.015041,0.831578126 214.015041,1.10944691 C214.015041,1.30618613 214.001104,1.47250176 213.97323,1.60839379 C213.945356,1.74428583 213.931419,1.8822061 213.931419,2.02012637 C213.931419,2.56166628 214.116582,3.01396365 214.486909,3.37499025 C214.857236,3.73601685 215.285302,3.91653015 215.769116,3.91653015 C216.316642,3.91653015 216.774573,3.72384741 217.140918,3.33848194 C217.507263,2.95514471 217.690435,2.51096029 217.690435,2.00998518 Z" id="Shape"></path>
            </g>
        </g>
    </g>
</svg>