<?xml version="1.0" encoding="UTF-8"?>
<svg width="24px" height="24px" viewBox="0 0 24 24" version="1.1" xmlns="http://www.w3.org/2000/svg" xmlns:xlink="http://www.w3.org/1999/xlink">
    <title>ic_keyboard_voice</title>
    <defs>
        <path d="M12,15 C13.66,15 14.99,13.66 14.99,12 L15,6 C15,4.34 13.66,3 12,3 C10.34,3 9,4.34 9,6 L9,12 C9,13.66 10.34,15 12,15 L12,15 Z M17.3,12 C17.3,15 14.76,17.1 12,17.1 C9.24,17.1 6.7,15 6.7,12 L5,12 C5,15.42 7.72,18.23 11,18.72 L11,22 L13,22 L13,18.72 C16.28,18.24 19,15.42 19,12 L17.3,12 L17.3,12 Z" id="path-1"></path>
        <rect id="path-3" x="0" y="0" width="24" height="24"></rect>
    </defs>
    <g id="ic_keyboard_voice" stroke="none" stroke-width="1" fill="none" fill-rule="evenodd">
        <mask id="mask-2" fill="white">
            <use xlink:href="#path-1"></use>
        </mask>
        <g id="Mask"></g>
        <g id="Group" mask="url(#mask-2)">
            <g id="🎨-Color">
                <mask id="mask-4" fill="white">
                    <use xlink:href="#path-3"></use>
                </mask>
                <use id="White" fill="#FFFFFF" xlink:href="#path-3"></use>
            </g>
        </g>
    </g>
</svg>