<svg width="44" height="44" viewBox="0 0 44 44" fill="none" xmlns="http://www.w3.org/2000/svg">
<g clip-path="url(#clip0_414_1236)">
<path d="M21.6267 39.1489C11.9492 39.1489 4.10449 31.3042 4.10449 21.6267C4.10449 11.9492 11.9492 4.10449 21.6267 4.10449C31.3042 4.10449 39.1489 11.9492 39.1489 21.6267C39.1489 31.3042 31.3042 39.1489 21.6267 39.1489Z" fill="white" stroke="#2AA65F"/>
<path d="M27.9345 21.0265L19.1415 15.1657C19.033 15.0933 18.907 15.0517 18.7767 15.0453C18.6465 15.0389 18.517 15.068 18.4019 15.1294C18.2869 15.1908 18.1907 15.2822 18.1235 15.394C18.0564 15.5057 18.0207 15.6336 18.0205 15.764V27.4892C18.021 27.6194 18.0566 27.7469 18.1237 27.8584C18.1908 27.9699 18.2868 28.0611 18.4015 28.1225C18.5162 28.1838 18.6454 28.2129 18.7754 28.2068C18.9054 28.2007 19.0312 28.1595 19.1397 28.0876L27.9345 22.2268C28.0334 22.161 28.1145 22.0717 28.1706 21.967C28.2267 21.8623 28.256 21.7454 28.256 21.6266C28.256 21.5078 28.2267 21.3909 28.1706 21.2862C28.1145 21.1815 28.0334 21.0923 27.9345 21.0265Z" fill="#2AA65F"/>
</g>
<defs>
<clipPath id="clip0_414_1236">
<rect width="43.2533" height="43.2533" fill="white"/>
</clipPath>
</defs>
</svg>
